# Made in Blockbench 4.10.4

mtllib default.mtl
o cube
v 1.000000 0.062500 0.562500
v 1.000000 0.062500 0.000000
v 1.000000 0.000000 0.562500
v 1.000000 0.000000 0.000000
v 0.000000 0.062500 0.000000
v 0.000000 0.062500 0.562500
v 0.000000 0.000000 0.000000
v 0.000000 0.000000 0.562500
vt 0 1
vt 0.03125 1
vt 0.03125 0.96875
vt 0 0.96875
vt 0 1
vt 0.03125 1
vt 0.03125 0.96875
vt 0 0.96875
vt 0 1
vt 0.03125 1
vt 0.03125 0.96875
vt 0 0.96875
vt 0 1
vt 0.03125 1
vt 0.03125 0.96875
vt 0 0.96875
vt 0.5 0.71875
vt 0 0.71875
vt 0 1
vt 0.5 1
vt 0.03125 0.96875
vt 0 0.96875
vt 0 1
vt 0.03125 1
vn 0 0 -1
vn 1 0 0
vn 0 0 1
vn -1 0 0
vn 0 1 0
vn 0 -1 0
usemtl main
f 4/4/1 7/3/1 5/2/1 2/1/1
f 3/8/2 4/7/2 2/6/2 1/5/2
f 8/12/3 3/11/3 1/10/3 6/9/3
f 7/16/4 8/15/4 6/14/4 5/13/4
f 6/20/5 1/19/5 2/18/5 5/17/5
f 7/24/6 4/23/6 3/22/6 8/21/6
